<?xml version="1.0" standalone="no"?><!DOCTYPE svg PUBLIC "-//W3C//DTD SVG 1.1//EN" "http://www.w3.org/Graphics/SVG/1.1/DTD/svg11.dtd"><svg t="1508588030802" class="icon" style="" viewBox="0 0 1026 1024" version="1.1" xmlns="http://www.w3.org/2000/svg" p-id="2129" xmlns:xlink="http://www.w3.org/1999/xlink" width="200.390625" height="200"><defs><style type="text/css"></style></defs><path d="M991.175293 278.948868C968.60032 223.47946 935.449258 173.720523 892.63862 131.056837 849.835096 88.395514 799.902198 55.362703 744.239004 32.867029 690.490649 11.145273 633.704635 0.130789 575.463811 0.130789 517.214689 0.130789 460.432231 11.145273 406.686251 32.867029 351.024241 55.362703 301.09371 88.39433 258.281888 131.056837 195.569943 193.551786 153.1897 272.783499 135.730852 360.179778 135.119051 363.23765 134.544005 366.312063 133.997416 369.398292 133.91442 369.846104 133.830238 370.292732 133.751984 370.74645 133.281277 373.427405 132.842583 376.114266 132.418117 378.810581 132.27228 379.740467 132.126444 380.666806 131.98535 381.594329 131.636767 383.936176 131.30241 386.270937 130.989396 388.6116 130.811547 389.923131 130.63844 391.227568 130.471262 392.535556 130.216345 394.595009 129.966171 396.649738 129.737338 398.704468 129.553561 400.327926 129.386383 401.952571 129.220391 403.580756 129.203791 403.731997 129.183635 403.88796 129.168222 404.036837 129.168222 404.080554 129.168222 404.121911 129.163479 404.162081 125.185589 443.800982 126.416304 483.701002 132.918465 523.265462 140.435552 569.01301 154.708531 612.629033 175.430316 653.286433L16.641942 790.283321C16.031327 790.813843 15.43494 791.365628 14.865823 791.937503 3.872381 802.889363-1.41685 818.396125 0.362826 834.464128 1.85083 847.949246 8.204783 860.894392 18.242584 870.936451L151.236917 1004.702961C151.273672 1004.737226 151.308057 1004.773854 151.345998 1004.811665 161.43241 1014.863176 174.458075 1021.214048 188.025586 1022.7099 190.076778 1022.933215 192.118485 1023.040736 194.144779 1023.040736 208.038345 1023.040736 221.104323 1017.812344 230.695131 1008.255905 231.207336 1007.738383 231.707683 1007.213771 232.187878 1006.66671L373.513845 846.408495C453.076396 886.427854 542.47874 901.719574 630.838893 890.741721 631.022668 890.720453 631.210003 890.693277 631.39141 890.674372 635.014789 890.219472 638.638164 889.720855 642.2568 889.179702 642.736995 889.108808 643.2243 889.04146 643.702119 888.96584 645.216209 888.734255 646.730295 888.49558 648.244386 888.242727 649.709861 888.005233 651.177708 887.755925 652.640815 887.500708 653.799205 887.29748 654.956407 887.104886 656.115985 886.896932 658.644998 886.439669 661.155039 885.955231 663.667456 885.455432 664.497416 885.287651 665.32145 885.124596 666.145483 884.950907 668.903332 884.389667 671.654062 883.805977 674.394122 883.191568 674.41665 883.186841 674.43088 883.186841 674.45222 883.182115 674.456963 883.177389 674.464078 883.177389 674.468821 883.177389 757.061921 864.629296 832.506673 823.14835 892.637436 763.22447 935.446887 720.563147 968.597949 670.80421 991.174109 615.331254 1012.971289 561.772425 1024.024013 505.182904 1024.024013 447.141245 1024.024013 389.099586 1012.968917 332.508877 991.176481 278.948868L991.176481 278.948868 991.175293 278.948868ZM388.468579 777.74345C386.902321 776.862007 385.336064 775.969931 383.780477 775.064859 370.779712 767.496983 354.334603 769.370931 343.392144 779.670573L336.783272 785.880838C336.016153 786.607497 335.285783 787.364876 334.58506 788.157702L192.085287 949.732171 73.601064 830.564988 235.448441 690.9155C235.638147 690.759537 235.819555 690.598842 235.998587 690.433425L241.01393 685.916332C252.965386 675.141706 255.662766 657.473876 247.462738 643.644924 218.717588 595.170337 201.462674 541.17197 196.308609 485.483971L539.719711 824.943136C486.928186 820.024311 435.414801 804.145357 388.469762 777.74227L388.469762 777.74227 388.468579 777.74345ZM819.273517 510.581441C766.50096 510.581441 723.722336 467.952017 723.722336 415.356158 723.722336 362.768572 766.502148 320.13797 819.273517 320.13797 872.044886 320.13797 914.82351 362.769752 914.82351 415.356158 914.822326 467.952017 872.044886 510.581441 819.273517 510.581441L819.273517 510.581441 819.273517 510.581441Z" p-id="2130" fill="#1296db"></path></svg>