<?xml version="1.0" standalone="no"?><!DOCTYPE svg PUBLIC "-//W3C//DTD SVG 1.1//EN" "http://www.w3.org/Graphics/SVG/1.1/DTD/svg11.dtd"><svg t="1508573292071" class="icon" style="" viewBox="0 0 1024 1024" version="1.1" xmlns="http://www.w3.org/2000/svg" p-id="939" xmlns:xlink="http://www.w3.org/1999/xlink" width="200" height="200"><defs><style type="text/css"></style></defs><path d="M110.642936 724.980719c-0.23536 0.23536-0.506537 0.418532-0.74292 0.653893-53.648874 53.664224-55.097876 139.191132-3.251044 191.022615 51.861158 51.871391 137.38909 50.41932 191.047174-3.244904 0.227174-0.196475 0.423649-0.467651 0.669242-0.723477l0.01535 0.020466 81.051991-81.032548-187.797154-187.777711L110.642936 724.980719zM198.509123 904.051117c-12.260232 12.261255-39.915082 4.426823-61.787228-17.425881-21.892613-21.86703-29.698392-49.560766-17.446347-61.787228 12.261255-12.256138 30.411637 5.04183 52.299133 26.949792C193.432501 873.644597 210.770378 891.796002 198.509123 904.051117z" p-id="940" fill="#1296db"></path><path d="M927.780565 504.870626c-12.655228-7.036253-45.788859-10.409071-65.614393-11.841699 16.131399-22.434965-17.859763-87.088474-22.360264-91.604324-4.00829-4.00829-56.012711-31.53932-83.060741-25.862018 5.658883-27.058262-21.872147-79.07087-25.895787-83.080184-4.027733-4.022617-56.011688-31.553647-83.075067-25.876344 5.668093-27.058262-21.862937-79.057567-25.885554-83.099626-4.550643-4.550643-70.981634-39.429011-92.494601-21.582551-1.004887-19.983123-3.845585-53.609988-10.921747-66.392106-10.331299-18.588357-48.833195-50.547233-66.092277 1.560542L246.007927 589.55126l1.663896-1.689479 23.26282 23.266913 78.771041-125.205607 26.624381 26.63973-81.957617 121.995495 16.412808 16.417925 93.962022-110.015649 25.970488 25.970488L333.73699 673.932066l15.589047 15.579837 107.017362-96.951099 25.979698 25.965371-110.035092 93.942579 16.372899 16.397459 122.07429-81.938174 26.619264 26.619264-125.226073 78.747505 23.345708 23.360034-1.699712 1.669012 492.463038-206.384487C978.346217 553.674145 946.389388 515.172249 927.780565 504.870626zM411.803997 459.746916l-28.01403-27.985378 31.233352-49.635467c7.209192-11.04352 21.100574-15.70775 31.022551-10.389628 9.955746 5.347798 12.167111 18.624173 4.983501 29.633924L411.803997 459.746916zM472.666156 520.647961l-27.259854-27.275203 39.920198-46.734394c8.794293-9.942443 22.8668-12.280698 31.426757-5.1503 8.562003 7.16519 8.370645 21.021779-0.400113 30.977525l0-0.005117L472.666156 520.647961zM529.938558 577.900919l-27.284413-27.275203 48.217165-43.671639c9.937326-8.759501 23.817452-8.942673 30.967292-0.379647 7.116071 8.578376 4.79112 22.63144-5.199419 31.445176L529.938558 577.900919zM641.185244 608.317673l-49.630351 31.18935-28.018124-28.018124 58.415434-39.191604c11.025101-7.198959 24.310685-4.969175 29.623691 4.968152C656.873552 587.223239 652.219555 601.13304 641.185244 608.317673z" p-id="941" fill="#1296db"></path></svg>